PathFileType	4	(X/Y/Z)	Patient4_TMGait_0pt2_01_right_03.trc.trc
DataRate	CameraRate	NumFrames	NumMarkers	Units	OrigDataRate	OrigDataStartFrame	OrigNumFrames
40.345821325648	40.345821325648	4	33	mm	40.345821325648	18	       141
Frame#	Time	Sacral			L.Shoulder			Chest			R.Shoulder			Neck			R.ASIS			L.ASIS			R.Thigh.Superior			R.Thigh.Lateral			R.Thigh.Inferior			R.Patella			L.Thigh.Superior			L.Thigh.Lateral			L.Thigh.Inferior			L.Patella			L.Shank.Superior			L.Shank.Lateral			L.Shank.Inferior			R.Shank.Superior			R.Shank.Lateral			R.Shank.Inferior			R.Heel			R.Midfoot.Superior			R.Midfoot.Lateral			R.Toe			L.Heel			L.Midfoot.Lateral			L.Midfoot.Superior			L.Toe			L.Elbow			L.Wrist			R.Elbow			R.Wrist			
		X1	Y1	Z1	X2	Y2	Z2	X3	Y3	Z3	X4	Y4	Z4	X5	Y5	Z5	X6	Y6	Z6	X7	Y7	Z7	X8	Y8	Z8	X9	Y9	Z9	X10	Y10	Z10	X11	Y11	Z11	X12	Y12	Z12	X13	Y13	Z13	X14	Y14	Z14	X15	Y15	Z15	X16	Y16	Z16	X17	Y17	Z17	X18	Y18	Z18	X19	Y19	Z19	X20	Y20	Z20	X21	Y21	Z21	X22	Y22	Z22	X23	Y23	Z23	X24	Y24	Z24	X25	Y25	Z25	X26	Y26	Z26	X27	Y27	Z27	X28	Y28	Z28	X29	Y29	Z29	X30	Y30	Z30	X31	Y31	Z31	X32	Y32	Z32	X33	Y33	Z33	

18	4.931357142857	859.680842436181	1010.102260373879	393.881450132142	1083.488352086939	1436.493066471251	246.193013113246	1147.253403728834	1368.832844982877	426.234310927005	1027.752821932153	1445.348448845502	576.190519459374	1034.603606308829	1497.724681561372	390.012701879080	1065.296425907182	947.181979111734	552.958195531333	1099.546024710944	962.141246808500	279.787594540954	1135.119416478584	764.209769900782	530.939307261163	1078.002190833445	649.344422708876	601.483532220329	1165.369643652409	600.978584520157	527.508131619479	1187.953696185893	509.195060811873	551.142026909413	1129.592895712779	744.490421046441	318.235750014276	1043.479933981791	627.685099064650	251.240755309713	1113.974063795156	551.467983637476	327.696093236119	1108.990971368312	482.488676575786	338.683798067150	1078.403592150351	410.441974598328	330.273267392916	986.766674588609	298.696711939381	278.658006999533	1023.629028575198	188.428498976378	357.424367489190	1147.914396795677	423.156543254743	562.663720703016	1063.208405747742	334.035752550293	629.791466270114	1104.318919617273	230.089416719840	583.458849108878	962.768055797484	69.561619273123	563.293152711487	1136.621054808245	115.703449273421	603.700754171923	1045.192512314506	56.166130557064	637.561146920119	1250.927720259894	59.010002343097	631.563237267911	886.859552376746	38.413927631735	401.599215221416	960.467576118691	35.862372781582	320.071742463818	1044.467703806887	96.243004244802	347.214463724542	1172.501437117572	43.707636137707	317.322999561606	1218.566653195422	1140.427941727152	94.169478235973	1459.887313033770	1044.895129598006	136.148564653402	857.681253261264	1140.034687359922	662.494352820838	824.129545382025	879.249065861477	669.157274781420	
19	4.956142857143	859.103373012652	1010.621741000110	394.102302940695	1085.310891630420	1436.497692198086	249.306640948291	1146.370760198066	1369.203725648304	430.435784889638	1024.726931073814	1446.403760891972	578.337343766473	1034.169675208544	1497.929974260023	392.026459787686	1062.414421896566	947.257202681986	556.316390492200	1100.403090113721	962.347451333766	283.428468030100	1130.805824142522	763.123935226172	535.408086430837	1071.537791164895	648.386328226342	604.351882358839	1159.506904545055	600.020133115023	531.213358280971	1182.236442861021	510.549509405015	553.295393295954	1127.552371485214	743.874433940225	321.292750621916	1040.697150879893	628.186304069468	252.676148495948	1109.677459544392	550.981908773965	329.253280443317	1103.722554357256	482.201586962687	339.825505288884	1073.384262980839	410.552607913810	331.035711852410	981.800005669416	298.944351782272	279.015387428698	1018.558871763349	188.470633934884	357.574856963591	1146.635431334896	423.652889299464	564.652519284436	1066.802845769911	329.476228920991	631.854506054029	1113.615326418493	227.439343602212	585.034972627594	979.833148982686	59.911420087468	564.614984786254	1152.732034871728	112.847505678895	604.722689594874	1063.341070059144	49.209276972486	638.384483881616	1269.867534716391	60.354243331547	631.683521845204	881.857912611853	38.437239024449	401.557870783934	955.456951727796	35.850677289425	320.028927459893	1039.475145593332	96.221575495414	347.202281295715	1167.530021077261	43.626666635672	317.328741963461	1225.145005744389	1143.583036925125	97.786137111421	1470.017103595086	1058.875665565797	141.476134314999	851.028532346911	1143.470880522495	662.276575039039	816.077312093213	883.120320738006	669.110538322756	
20	4.980928571429	858.811189606538	1010.702763762699	395.079614600928	1086.518388565042	1436.293909892272	252.782527446334	1145.411106441842	1369.435797786905	434.807215506027	1021.958592939938	1447.116423672583	580.981522953287	1033.529074952853	1497.893981243797	394.526651101063	1060.225950464165	946.992695681724	559.802065628584	1101.283980743329	962.453115235067	287.209135275970	1127.359977161146	761.647032439507	539.868372645801	1065.786295069391	646.908264023974	606.996981652999	1154.483206611658	598.655135680156	534.751779965505	1176.845009287915	511.098250930836	555.161864851522	1125.921860560325	743.219167281435	324.387071701079	1038.343453322033	628.557005262161	254.349597995788	1105.999582476201	550.410982557533	330.907252686210	1099.149102370046	481.765907070798	341.060327654405	1068.892453136700	410.505995727281	331.943626816353	977.124678155094	299.215057064881	279.526624990565	1013.678442194336	188.441561570885	357.789568436350	1144.974110246217	423.543361672928	566.341584624584	1069.233029913536	325.397868449614	633.494987959799	1120.492911127632	225.125304224411	586.143694622937	992.980854697718	52.875899347627	565.414052971192	1165.041487836472	110.267615845432	605.184084280946	1077.158380279678	44.026793354302	638.798372717615	1284.028577745761	60.663399742018	631.468048296465	876.860172176101	38.470488095940	401.519912040572	950.442144515957	35.847047868600	319.994939535855	1034.485901719116	96.195160585822	347.203883595939	1162.551053950390	43.530193511669	317.328309779908	1230.610332797845	1146.039833633872	102.044843637197	1478.355932662729	1071.515675094198	147.140674899111	846.454427079445	1145.593565643156	663.125303229564	811.362737897463	885.435200948954	670.426967403849	
21	5.005714285714	858.825176874233	1010.376518401079	396.861024242180	1087.094217704218	1435.939013622543	256.625350327236	1144.396985890140	1369.565048888373	439.352651199810	1019.473022321139	1447.489649926820	584.164111427449	1032.687430044426	1497.652298920748	397.528681896770	1058.803588503935	946.443127038505	563.407252872658	1102.201983513040	962.491677974906	291.115446306089	1124.912648111199	759.874820154600	544.180051855173	1060.993985028116	645.026847515575	609.362441841270	1150.466074382430	597.003332270599	537.984262134413	1172.005274751181	510.897093270722	556.690957142670	1124.732714942399	742.528736646088	327.493899567129	1036.407156910964	628.805401456759	256.277055341683	1102.941656998439	549.761272231296	332.662039187291	1095.277768174490	481.184729036320	342.401148774012	1064.924896642827	410.304759461641	333.007906037519	972.726459669688	299.518406071774	280.207821608953	1008.988041797975	188.347681130929	358.076290504056	1143.056259206756	422.831803730661	567.700165234262	1070.475735842178	321.807024019252	634.676070070866	1124.857521716634	223.040991169616	586.744516860498	1001.917111285364	48.165438074128	565.644430850624	1173.310737268929	107.932417881776	605.067280342883	1086.391502809296	40.464391315671	638.813618201566	1293.319002027263	60.021575556914	630.999755831762	871.866861257122	38.510317365245	401.487395355820	945.424550043422	35.849936665054	319.973013243480	1029.501532078811	96.166020543543	347.218875619832	1157.563512884964	43.425411830604	317.321359826690	1234.916029820986	1147.831302873213	106.860553051124	1484.946663994852	1082.752839645430	153.064704681926	843.718937005700	1146.482665582377	665.103998285697	809.491030511303	886.303900257209	673.178965205595	
